<?xml version="1.0" encoding="UTF-8"?>
<svg xmlns="http://www.w3.org/2000/svg" width="1220" height="280" viewBox="0 0 1220 280" role="img" aria-labelledby="title desc">
  <title id="title">FluxExactOutputRoutingFlow</title>
  <desc id="desc">FluxExactOutputRoutingFlow flow diagram</desc>
  <defs>
    <linearGradient id="bg" x1="0" x2="1" y1="0" y2="1">
      <stop offset="0%" stop-color="#FBFCFE" />
      <stop offset="100%" stop-color="#F1F5FA" />
    </linearGradient>
    <radialGradient id="glowA" cx="0" cy="0" r="1" gradientUnits="userSpaceOnUse" gradientTransform="translate(180 52) rotate(14) scale(340 180)">
      <stop offset="0%" stop-color="#DCE9FF" stop-opacity="0.82" />
      <stop offset="100%" stop-color="#DCE9FF" stop-opacity="0" />
    </radialGradient>
    <radialGradient id="glowB" cx="0" cy="0" r="1" gradientUnits="userSpaceOnUse" gradientTransform="translate(1080 244) rotate(-10) scale(300 150)">
      <stop offset="0%" stop-color="#FFE8D8" stop-opacity="0.7" />
      <stop offset="100%" stop-color="#FFE8D8" stop-opacity="0" />
    </radialGradient>
    <pattern id="dots" x="0" y="0" width="24" height="24" patternUnits="userSpaceOnUse">
      <circle cx="2" cy="2" r="1.15" fill="#D7E1ED" opacity="0.48" />
    </pattern>
    <filter id="cardShadow" x="-20%" y="-20%" width="160%" height="160%">
      <feDropShadow dx="0" dy="10" stdDeviation="10" flood-color="#243B5514" />
    </filter>
      <marker id="arrow" markerWidth="13" markerHeight="13" refX="10.4" refY="6.5" orient="auto" markerUnits="userSpaceOnUse">
        <path d="M 1.2 1.2 L 10.4 6.5 L 1.2 11.8 L 3.8 6.5 Z" fill="#CBD6E3" />
      </marker>
  </defs>
  <rect x="0" y="0" width="1220" height="280" rx="28" fill="url(#bg)" />
  <rect x="0" y="0" width="1220" height="280" rx="28" fill="url(#dots)" opacity="0.32" />
  <ellipse cx="180" cy="52" rx="340" ry="180" fill="url(#glowA)" />
  <ellipse cx="1080" cy="244" rx="300" ry="150" fill="url(#glowB)" />
  <rect x="34" y="28" width="84" height="24" rx="12" fill="#17314D" />
  <text x="76" y="44" text-anchor="middle" font-family="'Trebuchet MS','Segoe UI','Microsoft YaHei',sans-serif" font-size="11" font-weight="700" letter-spacing="0.6" fill="#FFFFFF">测试流程</text>
  <text x="34" y="84" font-family="'Trebuchet MS','Segoe UI','Microsoft YaHei',sans-serif" font-size="25" font-weight="700" fill="#1D3148">FluxExactOutputRoutingFlow</text>
  <text x="34" y="107" font-family="'Trebuchet MS','Segoe UI','Microsoft YaHei',sans-serif" font-size="12" fill="#698096">左到右展示关键执行路径与状态流转</text>
    <rect x="34" y="118" width="148" height="4" rx="2" fill="#2C4E71" opacity="0.18" />
    <g>
      
      
      <path d="M 256 169 L 285 169" fill="none" stroke="#EFF4F9" stroke-width="6" stroke-linecap="round" stroke-linejoin="round" opacity="0.96" />
      <path d="M 256 169 L 285 169" fill="none" stroke="#CBD6E3" stroke-width="2.35" stroke-linecap="round" stroke-linejoin="round" marker-end="url(#arrow)" opacity="1" />
      
      <path d="M 491 169 L 520 169" fill="none" stroke="#EFF4F9" stroke-width="6" stroke-linecap="round" stroke-linejoin="round" opacity="0.96" />
      <path d="M 491 169 L 520 169" fill="none" stroke="#CBD6E3" stroke-width="2.35" stroke-linecap="round" stroke-linejoin="round" marker-end="url(#arrow)" opacity="1" />
      
      <path d="M 726 169 L 755 169" fill="none" stroke="#EFF4F9" stroke-width="6" stroke-linecap="round" stroke-linejoin="round" opacity="0.96" />
      <path d="M 726 169 L 755 169" fill="none" stroke="#CBD6E3" stroke-width="2.35" stroke-linecap="round" stroke-linejoin="round" marker-end="url(#arrow)" opacity="1" />
      
      <path d="M 961 169 L 990 169" fill="none" stroke="#EFF4F9" stroke-width="6" stroke-linecap="round" stroke-linejoin="round" opacity="0.96" />
      <path d="M 961 169 L 990 169" fill="none" stroke="#CBD6E3" stroke-width="2.35" stroke-linecap="round" stroke-linejoin="round" marker-end="url(#arrow)" opacity="1" />
    </g>
  <g>

    <g filter="url(#cardShadow)">
      <rect x="50" y="120" width="206" height="98" rx="26" fill="#EAF1FF" />
      <rect x="58" y="128" width="190" height="82" rx="20" fill="#ffffff" stroke="#C9D9FF" stroke-width="1.6" />
      <rect x="68" y="137" width="170" height="1.6" rx="0.8" fill="#D8E5FF" />
      <circle cx="78" cy="144" r="12" fill="#4B73F2" />
      <text x="78" y="148.5" text-anchor="middle" font-family="'Trebuchet MS','Segoe UI','Microsoft YaHei',sans-serif" font-size="12" font-weight="700" fill="#ffffff">A</text>
      <circle cx="234" cy="144" r="4.5" fill="#4B73F2" opacity="0.18" />
      <text font-family="'Trebuchet MS','Segoe UI','Microsoft YaHei',sans-serif" font-size="15.5" font-weight="700" fill="#2142A8" text-anchor="start"><tspan x="108" y="163.57500000000002">给定</tspan><tspan x="108" y="184.965">目标输出</tspan></text>
    </g>

    <g filter="url(#cardShadow)">
      <rect x="285" y="120" width="206" height="98" rx="26" fill="#EAF8F4" />
      <rect x="293" y="128" width="190" height="82" rx="20" fill="#ffffff" stroke="#BFE8DE" stroke-width="1.6" />
      <rect x="303" y="137" width="170" height="1.6" rx="0.8" fill="#CFEFE8" />
      <circle cx="313" cy="144" r="12" fill="#179986" />
      <text x="313" y="148.5" text-anchor="middle" font-family="'Trebuchet MS','Segoe UI','Microsoft YaHei',sans-serif" font-size="12" font-weight="700" fill="#ffffff">B</text>
      <circle cx="469" cy="144" r="4.5" fill="#179986" opacity="0.18" />
      <text font-family="'Trebuchet MS','Segoe UI','Microsoft YaHei',sans-serif" font-size="15.5" font-weight="700" fill="#0F6258" text-anchor="start"><tspan x="343" y="163.57500000000002">Router 反推</tspan><tspan x="343" y="184.965">输入金额</tspan></text>
    </g>

    <g filter="url(#cardShadow)">
      <rect x="520" y="120" width="206" height="98" rx="26" fill="#FFF5E3" />
      <rect x="528" y="128" width="190" height="82" rx="20" fill="#ffffff" stroke="#F2D49C" stroke-width="1.6" />
      <rect x="538" y="137" width="170" height="1.6" rx="0.8" fill="#F7E4BF" />
      <circle cx="548" cy="144" r="12" fill="#DA9400" />
      <text x="548" y="148.5" text-anchor="middle" font-family="'Trebuchet MS','Segoe UI','Microsoft YaHei',sans-serif" font-size="12" font-weight="700" fill="#ffffff">C</text>
      <circle cx="704" cy="144" r="4.5" fill="#DA9400" opacity="0.18" />
      <text font-family="'Trebuchet MS','Segoe UI','Microsoft YaHei',sans-serif" font-size="12.396694214876034" font-weight="700" fill="#9A6100" text-anchor="start"><tspan x="578" y="164.6611570247934">执行多跳</tspan><tspan x="578" y="181.76859504132233">Exact Output Swap</tspan></text>
    </g>

    <g filter="url(#cardShadow)">
      <rect x="755" y="120" width="206" height="98" rx="26" fill="#FFF0EC" />
      <rect x="763" y="128" width="190" height="82" rx="20" fill="#ffffff" stroke="#F4C1B5" stroke-width="1.6" />
      <rect x="773" y="137" width="170" height="1.6" rx="0.8" fill="#F7D5CD" />
      <circle cx="783" cy="144" r="12" fill="#E46644" />
      <text x="783" y="148.5" text-anchor="middle" font-family="'Trebuchet MS','Segoe UI','Microsoft YaHei',sans-serif" font-size="12" font-weight="700" fill="#ffffff">D</text>
      <circle cx="939" cy="144" r="4.5" fill="#E46644" opacity="0.18" />
      <text font-family="'Trebuchet MS','Segoe UI','Microsoft YaHei',sans-serif" font-size="15.5" font-weight="700" fill="#B34A2E" text-anchor="start"><tspan x="813" y="163.57500000000002">两跳输入资产</tspan><tspan x="813" y="184.965">分别计费</tspan></text>
    </g>

    <g filter="url(#cardShadow)">
      <rect x="990" y="120" width="206" height="98" rx="26" fill="#EEF3F8" />
      <rect x="998" y="128" width="190" height="82" rx="20" fill="#ffffff" stroke="#CAD6E4" stroke-width="1.6" />
      <rect x="1008" y="137" width="170" height="1.6" rx="0.8" fill="#DDE5EF" />
      <circle cx="1018" cy="144" r="12" fill="#647891" />
      <text x="1018" y="148.5" text-anchor="middle" font-family="'Trebuchet MS','Segoe UI','Microsoft YaHei',sans-serif" font-size="12" font-weight="700" fill="#ffffff">E</text>
      <circle cx="1174" cy="144" r="4.5" fill="#647891" opacity="0.18" />
      <text font-family="'Trebuchet MS','Segoe UI','Microsoft YaHei',sans-serif" font-size="15.5" font-weight="700" fill="#2F425A" text-anchor="start"><tspan x="1048" y="163.57500000000002">Treasury</tspan><tspan x="1048" y="184.965">收到协议费</tspan></text>
    </g>
  </g>
</svg>