<?xml version="1.0" encoding="UTF-8"?>
<svg xmlns="http://www.w3.org/2000/svg" width="1200" height="360" viewBox="0 0 1200 360" role="img" aria-labelledby="title desc">
  <title id="title">Regression Overview</title>
  <desc id="desc">Regression Overview flow diagram</desc>
  <defs>
    <linearGradient id="bg" x1="0" x2="1" y1="0" y2="1">
      <stop offset="0%" stop-color="#FBFCFE" />
      <stop offset="100%" stop-color="#F1F5FA" />
    </linearGradient>
    <radialGradient id="glowA" cx="0" cy="0" r="1" gradientUnits="userSpaceOnUse" gradientTransform="translate(180 52) rotate(14) scale(340 180)">
      <stop offset="0%" stop-color="#DCE9FF" stop-opacity="0.82" />
      <stop offset="100%" stop-color="#DCE9FF" stop-opacity="0" />
    </radialGradient>
    <radialGradient id="glowB" cx="0" cy="0" r="1" gradientUnits="userSpaceOnUse" gradientTransform="translate(1060 324) rotate(-10) scale(300 150)">
      <stop offset="0%" stop-color="#FFE8D8" stop-opacity="0.7" />
      <stop offset="100%" stop-color="#FFE8D8" stop-opacity="0" />
    </radialGradient>
    <pattern id="dots" x="0" y="0" width="24" height="24" patternUnits="userSpaceOnUse">
      <circle cx="2" cy="2" r="1.15" fill="#D7E1ED" opacity="0.48" />
    </pattern>
    <filter id="cardShadow" x="-20%" y="-20%" width="160%" height="160%">
      <feDropShadow dx="0" dy="10" stdDeviation="10" flood-color="#243B5514" />
    </filter>
      <marker id="arrow" markerWidth="13" markerHeight="13" refX="10.4" refY="6.5" orient="auto" markerUnits="userSpaceOnUse">
        <path d="M 1.2 1.2 L 10.4 6.5 L 1.2 11.8 L 3.8 6.5 Z" fill="#CBD6E3" />
      </marker>
  </defs>
  <rect x="0" y="0" width="1200" height="360" rx="28" fill="url(#bg)" />
  <rect x="0" y="0" width="1200" height="360" rx="28" fill="url(#dots)" opacity="0.32" />
  <ellipse cx="180" cy="52" rx="340" ry="180" fill="url(#glowA)" />
  <ellipse cx="1060" cy="324" rx="300" ry="150" fill="url(#glowB)" />
  <rect x="34" y="28" width="84" height="24" rx="12" fill="#17314D" />
  <text x="76" y="44" text-anchor="middle" font-family="'Trebuchet MS','Segoe UI','Microsoft YaHei',sans-serif" font-size="11" font-weight="700" letter-spacing="0.6" fill="#FFFFFF">测试流程</text>
  <text x="34" y="84" font-family="'Trebuchet MS','Segoe UI','Microsoft YaHei',sans-serif" font-size="25" font-weight="700" fill="#1D3148">Regression Overview</text>
  <text x="34" y="107" font-family="'Trebuchet MS','Segoe UI','Microsoft YaHei',sans-serif" font-size="12" fill="#698096">左到右展示关键执行路径与状态流转</text>
    <rect x="34" y="118" width="148" height="4" rx="2" fill="#2C4E71" opacity="0.18" />
    <g>
      
      <path d="M 583 138 L 583 180" fill="none" stroke="#EFF4F9" stroke-width="6" stroke-linecap="round" stroke-linejoin="round" opacity="0.96" />
      <path d="M 583 138 L 583 180" fill="none" stroke="#CBD6E3" stroke-width="2.35" stroke-linecap="round" stroke-linejoin="round" opacity="1" />
      
      <path d="M 163 180 L 973 180" fill="none" stroke="#EFF4F9" stroke-width="6" stroke-linecap="round" stroke-linejoin="round" opacity="0.96" />
      <path d="M 163 180 L 973 180" fill="none" stroke="#CBD6E3" stroke-width="2.35" stroke-linecap="round" stroke-linejoin="round" opacity="1" />
      
      <path d="M 163 180 L 163 220" fill="none" stroke="#EFF4F9" stroke-width="6" stroke-linecap="round" stroke-linejoin="round" opacity="0.96" />
      <path d="M 163 180 L 163 220" fill="none" stroke="#CBD6E3" stroke-width="2.35" stroke-linecap="round" stroke-linejoin="round" marker-end="url(#arrow)" opacity="1" />
      
      <path d="M 433 180 L 433 220" fill="none" stroke="#EFF4F9" stroke-width="6" stroke-linecap="round" stroke-linejoin="round" opacity="0.96" />
      <path d="M 433 180 L 433 220" fill="none" stroke="#CBD6E3" stroke-width="2.35" stroke-linecap="round" stroke-linejoin="round" marker-end="url(#arrow)" opacity="1" />
      
      <path d="M 703 180 L 703 220" fill="none" stroke="#EFF4F9" stroke-width="6" stroke-linecap="round" stroke-linejoin="round" opacity="0.96" />
      <path d="M 703 180 L 703 220" fill="none" stroke="#CBD6E3" stroke-width="2.35" stroke-linecap="round" stroke-linejoin="round" marker-end="url(#arrow)" opacity="1" />
      
      <path d="M 973 180 L 973 220" fill="none" stroke="#EFF4F9" stroke-width="6" stroke-linecap="round" stroke-linejoin="round" opacity="0.96" />
      <path d="M 973 180 L 973 220" fill="none" stroke="#CBD6E3" stroke-width="2.35" stroke-linecap="round" stroke-linejoin="round" marker-end="url(#arrow)" opacity="1" />
    </g>
  <g>

    <g filter="url(#cardShadow)">
      <rect x="480" y="40" width="206" height="98" rx="26" fill="#EEF3F8" />
      <rect x="488" y="48" width="190" height="82" rx="20" fill="#ffffff" stroke="#CAD6E4" stroke-width="1.6" />
      <rect x="498" y="57" width="170" height="1.6" rx="0.8" fill="#DDE5EF" />
      <circle cx="508" cy="64" r="12" fill="#647891" />
      <text x="508" y="68.5" text-anchor="middle" font-family="'Trebuchet MS','Segoe UI','Microsoft YaHei',sans-serif" font-size="12" font-weight="700" fill="#ffffff">A</text>
      <circle cx="664" cy="64" r="4.5" fill="#647891" opacity="0.18" />
      <text font-family="'Trebuchet MS','Segoe UI','Microsoft YaHei',sans-serif" font-size="15.5" font-weight="700" fill="#2F425A" text-anchor="start"><tspan x="538" y="94.27">Regression</tspan></text>
    </g>

    <g filter="url(#cardShadow)">
      <rect x="60" y="220" width="206" height="98" rx="26" fill="#EAF1FF" />
      <rect x="68" y="228" width="190" height="82" rx="20" fill="#ffffff" stroke="#C9D9FF" stroke-width="1.6" />
      <rect x="78" y="237" width="170" height="1.6" rx="0.8" fill="#D8E5FF" />
      <circle cx="88" cy="244" r="12" fill="#4B73F2" />
      <text x="88" y="248.5" text-anchor="middle" font-family="'Trebuchet MS','Segoe UI','Microsoft YaHei',sans-serif" font-size="12" font-weight="700" fill="#ffffff">B</text>
      <circle cx="244" cy="244" r="4.5" fill="#4B73F2" opacity="0.18" />
      <text font-family="'Trebuchet MS','Segoe UI','Microsoft YaHei',sans-serif" font-size="11.6" font-weight="700" fill="#2142A8" text-anchor="start"><tspan x="118" y="272.944">treasury-accounting</tspan></text>
    </g>

    <g filter="url(#cardShadow)">
      <rect x="330" y="220" width="206" height="98" rx="26" fill="#EAF8F4" />
      <rect x="338" y="228" width="190" height="82" rx="20" fill="#ffffff" stroke="#BFE8DE" stroke-width="1.6" />
      <rect x="348" y="237" width="170" height="1.6" rx="0.8" fill="#CFEFE8" />
      <circle cx="358" cy="244" r="12" fill="#179986" />
      <text x="358" y="248.5" text-anchor="middle" font-family="'Trebuchet MS','Segoe UI','Microsoft YaHei',sans-serif" font-size="12" font-weight="700" fill="#ffffff">C</text>
      <circle cx="514" cy="244" r="4.5" fill="#179986" opacity="0.18" />
      <text font-family="'Trebuchet MS','Segoe UI','Microsoft YaHei',sans-serif" font-size="11.764705882352942" font-weight="700" fill="#0F6258" text-anchor="start"><tspan x="388" y="273">rewards-accounting</tspan></text>
    </g>

    <g filter="url(#cardShadow)">
      <rect x="600" y="220" width="206" height="98" rx="26" fill="#FFF5E3" />
      <rect x="608" y="228" width="190" height="82" rx="20" fill="#ffffff" stroke="#F2D49C" stroke-width="1.6" />
      <rect x="618" y="237" width="170" height="1.6" rx="0.8" fill="#F7E4BF" />
      <circle cx="628" cy="244" r="12" fill="#DA9400" />
      <text x="628" y="248.5" text-anchor="middle" font-family="'Trebuchet MS','Segoe UI','Microsoft YaHei',sans-serif" font-size="12" font-weight="700" fill="#ffffff">D</text>
      <circle cx="784" cy="244" r="4.5" fill="#DA9400" opacity="0.18" />
      <text font-family="'Trebuchet MS','Segoe UI','Microsoft YaHei',sans-serif" font-size="11.6" font-weight="700" fill="#9A6100" text-anchor="start"><tspan x="658" y="272.944">router-pair-critical</tspan></text>
    </g>

    <g filter="url(#cardShadow)">
      <rect x="870" y="220" width="206" height="98" rx="26" fill="#FFF0EC" />
      <rect x="878" y="228" width="190" height="82" rx="20" fill="#ffffff" stroke="#F4C1B5" stroke-width="1.6" />
      <rect x="888" y="237" width="170" height="1.6" rx="0.8" fill="#F7D5CD" />
      <circle cx="898" cy="244" r="12" fill="#E46644" />
      <text x="898" y="248.5" text-anchor="middle" font-family="'Trebuchet MS','Segoe UI','Microsoft YaHei',sans-serif" font-size="12" font-weight="700" fill="#ffffff">E</text>
      <circle cx="1054" cy="244" r="4.5" fill="#E46644" opacity="0.18" />
      <text font-family="'Trebuchet MS','Segoe UI','Microsoft YaHei',sans-serif" font-size="11.6" font-weight="700" fill="#B34A2E" text-anchor="start"><tspan x="928" y="272.944">cross-contract-linkage</tspan></text>
    </g>
  </g>
</svg>